<svg xmlns="http://www.w3.org/2000/svg" viewBox="0 0 800 1000" width="800" height="1000" role="img" aria-label="Etiqueta Co-op — Lácteos">
<defs>
<linearGradient id="bg" x1="0" y1="0" x2="0.6" y2="1">
<stop offset="0" stop-color="#0b2340"/><stop offset="1" stop-color="#04101f"/>
</linearGradient>
<linearGradient id="sheen" x1="0" y1="0" x2="1" y2="1">
<stop offset="0" stop-color="#fff" stop-opacity="0.30"/>
<stop offset="0.45" stop-color="#fff" stop-opacity="0.03"/>
<stop offset="1" stop-color="#fff" stop-opacity="0.16"/>
</linearGradient>
<filter id="sh" x="-20%" y="-20%" width="140%" height="140%">
<feDropShadow dx="0" dy="26" stdDeviation="30" flood-color="#000" flood-opacity="0.55"/>
</filter>
</defs>
<rect width="800" height="1000" fill="url(#bg)"/>
<g filter="url(#sh)">
<rect x="60" y="110" width="680" height="740" rx="34" fill="#f4f7fa"/>
<rect x="60" y="110" width="680" height="150" rx="34" fill="#12305c"/>
<rect x="60" y="220" width="680" height="40" fill="#12305c"/>
<rect x="60" y="256" width="680" height="14" fill="#a6ce39"/>
<text x="90" y="196" font-family="Sora, Montserrat, sans-serif" font-size="58" font-weight="700" fill="#f4f7fa">Co-op</text>
<text x="90" y="360" font-family="ui-monospace, monospace" font-size="26" letter-spacing="6" fill="#a6ce39">LÁCTEOS</text>
<circle cx="625" cy="470" r="82" fill="none" stroke="#a6ce39" stroke-width="9"/>
<circle cx="625" cy="470" r="54" fill="#12305c" opacity="0.12"/>
<rect x="90" y="560" width="352" height="12" rx="6" fill="#12305c" opacity="0.25"/><rect x="90" y="594" width="391" height="12" rx="6" fill="#12305c" opacity="0.33"/><rect x="90" y="628" width="301" height="12" rx="6" fill="#12305c" opacity="0.38"/><rect x="90" y="662" width="443" height="12" rx="6" fill="#12305c" opacity="0.40"/>
<rect x="90" y="810" width="5" height="70" fill="#12305c"/><rect x="109" y="810" width="3" height="70" fill="#12305c"/><rect x="125" y="810" width="8" height="70" fill="#12305c"/><rect x="145" y="810" width="4" height="70" fill="#12305c"/><rect x="165" y="810" width="6" height="70" fill="#12305c"/><rect x="184" y="810" width="10" height="70" fill="#12305c"/><rect x="210" y="810" width="4" height="70" fill="#12305c"/><rect x="229" y="810" width="9" height="70" fill="#12305c"/><rect x="254" y="810" width="8" height="70" fill="#12305c"/><rect x="278" y="810" width="6" height="70" fill="#12305c"/><rect x="299" y="810" width="6" height="70" fill="#12305c"/><rect x="314" y="810" width="3" height="70" fill="#12305c"/><rect x="331" y="810" width="4" height="70" fill="#12305c"/><rect x="345" y="810" width="5" height="70" fill="#12305c"/><rect x="362" y="810" width="8" height="70" fill="#12305c"/>
<rect x="60" y="110" width="680" height="740" rx="34" fill="url(#sheen)" opacity="0.5"/>
</g>
</svg>