<svg xmlns="http://www.w3.org/2000/svg" viewBox="0 0 800 1000" width="800" height="1000" role="img" aria-label="Etiqueta Fortín — Ron">
<defs>
<linearGradient id="bg" x1="0" y1="0" x2="0.6" y2="1">
<stop offset="0" stop-color="#0b2340"/><stop offset="1" stop-color="#04101f"/>
</linearGradient>
<linearGradient id="sheen" x1="0" y1="0" x2="1" y2="1">
<stop offset="0" stop-color="#fff" stop-opacity="0.30"/>
<stop offset="0.45" stop-color="#fff" stop-opacity="0.03"/>
<stop offset="1" stop-color="#fff" stop-opacity="0.16"/>
</linearGradient>
<filter id="sh" x="-20%" y="-20%" width="140%" height="140%">
<feDropShadow dx="0" dy="26" stdDeviation="30" flood-color="#000" flood-opacity="0.55"/>
</filter>
</defs>
<rect width="800" height="1000" fill="url(#bg)"/>
<g filter="url(#sh)">
<rect x="60" y="110" width="680" height="740" rx="34" fill="#f7f9fb"/>
<rect x="60" y="110" width="680" height="150" rx="34" fill="#1b3b6f"/>
<rect x="60" y="220" width="680" height="40" fill="#1b3b6f"/>
<rect x="60" y="256" width="680" height="14" fill="#b9dd53"/>
<text x="90" y="196" font-family="Sora, Montserrat, sans-serif" font-size="58" font-weight="700" fill="#f7f9fb">Fortín</text>
<text x="90" y="360" font-family="ui-monospace, monospace" font-size="26" letter-spacing="6" fill="#b9dd53">RON</text>
<circle cx="625" cy="470" r="82" fill="none" stroke="#b9dd53" stroke-width="9"/>
<circle cx="625" cy="470" r="54" fill="#1b3b6f" opacity="0.12"/>
<rect x="90" y="560" width="419" height="12" rx="6" fill="#1b3b6f" opacity="0.34"/><rect x="90" y="594" width="363" height="12" rx="6" fill="#1b3b6f" opacity="0.40"/><rect x="90" y="628" width="223" height="12" rx="6" fill="#1b3b6f" opacity="0.33"/><rect x="90" y="662" width="334" height="12" rx="6" fill="#1b3b6f" opacity="0.29"/>
<rect x="90" y="810" width="5" height="70" fill="#1b3b6f"/><rect x="111" y="810" width="6" height="70" fill="#1b3b6f"/><rect x="130" y="810" width="3" height="70" fill="#1b3b6f"/><rect x="149" y="810" width="3" height="70" fill="#1b3b6f"/><rect x="167" y="810" width="6" height="70" fill="#1b3b6f"/><rect x="187" y="810" width="10" height="70" fill="#1b3b6f"/><rect x="208" y="810" width="4" height="70" fill="#1b3b6f"/><rect x="227" y="810" width="4" height="70" fill="#1b3b6f"/><rect x="247" y="810" width="10" height="70" fill="#1b3b6f"/><rect x="273" y="810" width="3" height="70" fill="#1b3b6f"/><rect x="290" y="810" width="9" height="70" fill="#1b3b6f"/><rect x="309" y="810" width="6" height="70" fill="#1b3b6f"/><rect x="330" y="810" width="6" height="70" fill="#1b3b6f"/><rect x="345" y="810" width="7" height="70" fill="#1b3b6f"/><rect x="368" y="810" width="5" height="70" fill="#1b3b6f"/>
<rect x="60" y="110" width="680" height="740" rx="34" fill="url(#sheen)" opacity="0.5"/>
</g>
</svg>